<svg width="2880" height="1800" viewBox="0 0 2880 1800" fill="none" xmlns="http://www.w3.org/2000/svg">
<path d="M1425.56 825.182H1387.61C1386.63 825.182 1385.79 825.908 1385.66 826.882L1367.08 966.308C1366.99 966.308 1367.02 966.308 1366.95 966.308L1350.41 826.91C1350.29 825.922 1349.45 825.182 1348.46 825.182H1280.65C1279.69 825.182 1278.81 825.963 1278.7 826.91C1278.7 826.91 1262.19 966.033 1262.07 966.026L1243.47 826.882C1243.34 825.908 1242.51 825.182 1241.53 825.182H1203.56C1202.37 825.182 1201.45 826.238 1201.62 827.417C1204.32 846.233 1223.14 977.313 1223.14 977.313C1223.28 978.28 1224.11 978.993 1225.08 978.993H1297.2C1298.2 978.993 1299.04 978.239 1299.14 977.245L1313.05 848.935C1313.24 847.138 1315.85 847.131 1316.05 848.935C1319.94 884.502 1329.95 977.231 1329.95 977.231C1330.06 978.225 1330.89 978.98 1331.89 978.98H1404.02C1404.99 978.98 1405.82 978.26 1405.96 977.3L1427.5 827.431C1427.67 826.251 1426.75 825.188 1425.56 825.188V825.182Z" fill="white"/>
<path d="M1191.4 825.182H1062.53C1061.44 825.182 1060.56 826.059 1060.56 827.143V859.639C1060.56 860.722 1061.44 861.6 1062.53 861.6H1102.61C1103.54 861.6 1104.29 862.347 1104.29 863.273V977.039C1104.29 978.122 1105.16 979 1106.25 979H1147.54C1148.62 979 1149.5 978.122 1149.5 977.039V863.252C1149.5 862.327 1150.25 861.579 1151.17 861.579H1191.4C1192.48 861.579 1193.36 860.701 1193.36 859.618V827.143C1193.36 826.059 1192.48 825.182 1191.4 825.182Z" fill="white"/>
<path d="M1538.15 867.181C1542.34 861.565 1547.82 857.691 1554.69 856.176C1563.37 854.276 1571.71 855.147 1579.35 860.016C1584.6 863.362 1588.14 868.155 1590.59 873.792C1591.09 874.937 1591.7 876.665 1592.2 878.118C1592.41 878.729 1592.98 879.133 1593.63 879.133C1607.61 879.119 1623.13 879.126 1637.2 879.119C1638.19 879.119 1638.91 878.18 1638.66 877.227C1638.27 875.725 1637.88 874.23 1637.43 872.784C1634.69 863.828 1630.84 855.421 1624.99 848.029C1615.87 836.523 1604.19 828.884 1590.13 824.777C1580.23 821.883 1570.11 820.814 1559.83 821.026C1550.6 821.218 1541.56 822.555 1532.86 825.641C1508.44 834.295 1492.83 851.218 1486.03 876.15C1483.9 883.974 1483.08 891.949 1483.13 899.999C1483.08 908.043 1483.9 916.024 1486.03 923.848C1492.84 948.781 1508.45 965.704 1532.86 974.358C1541.57 977.443 1550.6 978.781 1559.83 978.973C1570.11 979.185 1580.23 978.115 1590.13 975.222C1604.19 971.114 1615.87 963.476 1624.99 951.969C1630.84 944.577 1634.69 936.171 1637.43 927.215C1637.88 925.768 1638.27 924.273 1638.66 922.772C1638.91 921.812 1638.19 920.879 1637.2 920.879C1623.13 920.879 1607.61 920.879 1593.63 920.866C1592.98 920.866 1592.41 921.27 1592.2 921.88C1591.7 923.341 1591.09 925.069 1590.59 926.207C1588.14 931.837 1584.6 936.637 1579.35 939.983C1571.71 944.852 1563.37 945.723 1554.69 943.823C1547.81 942.315 1542.34 938.433 1538.15 932.817C1532.46 925.199 1530.21 916.374 1529.41 907.083C1529.21 904.717 1529.11 902.358 1529.1 899.993C1529.1 897.634 1529.21 895.268 1529.41 892.902C1530.2 883.611 1532.46 874.786 1538.15 867.168V867.181Z" fill="white"/>
<path d="M1477.84 825.182H1436.68C1435.6 825.182 1434.72 826.06 1434.72 827.143V977.039C1434.72 978.122 1435.6 979 1436.68 979H1477.84C1478.93 979 1479.81 978.122 1479.81 977.039V827.143C1479.81 826.06 1478.93 825.182 1477.84 825.182Z" fill="white"/>
<path d="M1754.98 825.182H1644.76C1643.68 825.182 1642.8 826.059 1642.8 827.143V977.039C1642.8 978.122 1643.68 979 1644.76 979H1754.97C1756.05 979 1756.93 978.122 1756.93 977.039V944.495C1756.93 943.412 1756.05 942.534 1754.97 942.534H1689.59C1688.66 942.534 1687.91 941.787 1687.91 940.861V920.571C1687.91 919.645 1688.66 918.898 1689.59 918.898H1752.09C1753.17 918.898 1754.05 918.02 1754.05 916.936V884.379C1754.05 883.296 1753.17 882.418 1752.09 882.418H1689.59C1688.67 882.418 1687.92 881.67 1687.92 880.745V863.252C1687.92 862.327 1688.67 861.579 1689.59 861.579H1754.97C1756.05 861.579 1756.93 860.701 1756.93 859.618V827.143C1756.93 826.059 1756.05 825.182 1754.97 825.182H1754.98Z" fill="white"/>
<path d="M1801.72 825.182C1791.68 825.182 1783.52 833.383 1783.52 843.38C1783.52 853.378 1791.68 861.579 1801.72 861.579C1811.77 861.579 1819.92 853.378 1819.92 843.38C1819.92 833.383 1811.72 825.182 1801.72 825.182ZM1801.72 857.581C1793.88 857.581 1787.52 851.17 1787.52 843.38C1787.52 835.591 1793.88 829.124 1801.72 829.124C1809.57 829.124 1815.98 835.536 1815.98 843.38C1815.98 851.225 1809.57 857.581 1801.72 857.581Z" fill="white"/>
<path d="M1802.13 850.971C1798.49 850.971 1796.29 847.892 1796.29 843.332C1796.29 838.772 1798.39 835.741 1801.88 835.741C1804.69 835.741 1806.59 837.332 1807.16 840.561H1811.36C1810.64 835.59 1806.8 832.36 1801.77 832.36C1795.88 832.36 1791.82 837.229 1791.82 843.332C1791.82 849.435 1795.92 854.303 1801.88 854.303C1806.95 854.303 1810.74 851.121 1811.52 846.205H1807.31C1806.8 849.229 1804.85 850.971 1802.14 850.971H1802.13Z" fill="white"/>
</svg>
